<?xml version="1.0" encoding="utf-8"?>
<!-- Generator: Adobe Illustrator 15.0.0, SVG Export Plug-In  -->
<!DOCTYPE svg PUBLIC "-//W3C//DTD SVG 1.1//EN" "http://www.w3.org/Graphics/SVG/1.1/DTD/svg11.dtd" [
	<!ENTITY ns_flows "http://ns.adobe.com/Flows/1.0/">
]>
<svg version="1.1"
	 xmlns="http://www.w3.org/2000/svg" xmlns:xlink="http://www.w3.org/1999/xlink" xmlns:a="http://ns.adobe.com/AdobeSVGViewerExtensions/3.0/"
	 x="0px" y="0px" width="500px" height="500px" viewBox="0.4 0.4 500 500" enable-background="new 0.4 0.4 500 500"
	 xml:space="preserve">
<defs>
</defs>
<circle fill="#0073AB" stroke="#0073AB" cx="250.5" cy="250.5" r="250"/>
<path fill="#FFFFFF" d="M353.6,363.5H142.9c-9.7,0,0,8.2,0,0l-5.9-89.8l-0.2-17.7l-23.7-6.2l0.5,23.9V398
	c0,13.6,13.1,24.6,29.3,24.6h210.7c16.1,0,29.3-11.1,29.3-24.6l-0.8-148.2l-22.3,6.9"/>
<path fill="#FFFFFF" d="M307.8,328.4c11.3,0.1,20.5-5.4,20.5-12l-0.3-33.9l-40.9-0.2l0.3,33.9C287.3,322.9,296.5,328.4,307.8,328.4
	L307.8,328.4z"/>
<path fill="#FFFFFF" stroke="#FFFFFF" stroke-miterlimit="10" d="M348.7,256.7C348.7,256.7,348.7,256.7,348.7,256.7l-0.9,0
	l-0.1,17.9v79.1h-199v-97.3l0.7,1.1c-0.1-0.1-0.1-0.2-0.2-0.3l-12.4-1.1l0.2,17.7v84.9l5.9,4.9h210.7c3.2,0,5.9-2.2,5.9-4.9v-84
	l0.3-17.9L348.7,256.7z"/>
<path fill="#FFFFFF" d="M192.6,328.4c11.3,0.1,20.5-5.4,20.5-12l-0.3-33.9l-40.9-0.2l0.3,33.9C172.2,322.9,181.3,328.4,192.6,328.4
	L192.6,328.4z"/>
<path fill="#FFFFFF" d="M298.9,93.1c-4.2,0-8.4-1.3-11.6-3.8c-9.3-7.4-21.7-11.4-34.9-11.4c-13.2,0-25.6,4.1-34.9,11.4
	c-6.4,5.1-16.8,5.1-23.2,0c-6.4-5.1-6.4-13.3,0-18.4c15.5-12.3,36.1-19.1,58.1-19.1c22,0,42.6,6.8,58.1,19.1
	c6.4,5.1,6.4,13.3,0,18.4C307.3,91.8,303.1,93.1,298.9,93.1L298.9,93.1z M298.9,93.1"/>
<path fill="#FFFFFF" d="M269.9,91.7l0.8,0c7.6,1.4,12.4,4.2,12.4,10.4l-0.1,15.1l6.1,0c32.8,0.1,59.3,16.1,59.1,35.6l-0.4,60.4
	c0,1.8-0.3,3.6-0.8,5.3l9.7,0c18,0.1,32.6,8.8,32.5,19.6c-0.1,10.7-14.5,21.7-32.8,19.3h-5.5l-217-1c-15.3-0.1-29.8-8.8-29.8-19.6
	c0.1-10.7,14.8-19.4,32.8-19.3l9.7,0c-0.4-1.7-0.7-3.5-0.7-5.3l0.4-60.4c0.1-19.5,26.8-35.2,59.6-35l13.7,0.1l0.1-15.2
	c0-6.6,5.8-9.4,14.4-10.5"/>
<path fill="#FFFFFF" stroke="#FFFFFF" stroke-width="7" stroke-miterlimit="10" d="M128,252.6c0,3.7,142.8,26,243,0.8"/>
<g>
	<g>
		<path fill="#0073AB" d="M212.9,185.9c1.6-2.8,3-4.8,4.1-5.9c0.4-0.4,0.9-0.9,1.4-1.3c0.5-0.4,1-0.8,1.5-1.2
			c0.3-0.2,0.5-0.3,0.7-0.4c0.4-0.2,1-0.3,1.8-0.5c0.7-0.1,1.5-0.1,2.4,0c0.9,0,1.7,0.2,2.4,0.4c0.6,0.2,1.2,0.6,1.7,1.2
			c0.7,0.8,1.3,1.8,1.9,3c0.7,1.4,1.4,3.2,2.1,5.5c0.7,2.3,1.4,4.6,1.9,7.1c0.6,2.5,1.1,4.9,1.4,7.2c0.4,2.3,0.5,4.3,0.4,5.8
			c0,0.8-0.1,1.6-0.4,2.4c-0.2,0.9-0.7,1.5-1.4,1.9c-0.8,0.5-2.7,0.8-5.7,0.8c-3,0-4.6-0.8-5-2.4c-0.1-0.4-0.1-0.9,0-1.3
			c0.1-0.4,0.1-0.9,0.1-1.3c0.3-2.7,0.2-5.8-0.2-9.2s-0.8-5.8-1.3-7.1c-0.4-1.4-1.2-1-2.4,1c-1.2,2-2.3,4.3-3.2,6.9
			c-0.9,2.6-1.6,4.3-2,5.1c-0.4,0.8-1.9,0.9-4.6,0.3c-2.7-0.6-4.2-1.4-4.4-2.3c-0.2-0.9-0.6-2.8-1.1-5.7c-0.5-2.9-1-5.5-1.4-7.6
			c-0.5-2.2-1-2.7-1.8-1.6c-0.7,1.1-1.7,3.1-2.8,6c-1.1,2.9-1.9,5.7-2.1,8.3c-0.1,0.4-0.1,0.8-0.1,1.2c0,0.4-0.1,0.8-0.3,1.2
			c-0.7,1.3-2.4,1.3-5.3-0.1c-2.9-1.4-4.7-2.5-5.4-3.3c-0.6-0.7-1-1.5-1-2.3c0-0.8,0-1.6,0.2-2.3c0.2-1.4,0.8-3,1.6-4.9
			c0.8-1.9,1.8-3.8,2.9-5.8c1.1-1.9,2.2-3.8,3.4-5.5c1.2-1.7,2.3-3.1,3.3-4.1c0.8-0.9,1.6-1.6,2.5-2c0.6-0.4,1.3-0.5,2-0.5
			c0.8,0,1.6,0.2,2.5,0.5c0.9,0.3,1.7,0.6,2.4,0.8c0.8,0.4,1.4,0.8,1.7,1c0.2,0.2,0.5,0.4,0.7,0.6c0.4,0.5,0.8,1,1.2,1.6
			c0.4,0.6,0.8,1.1,1.1,1.7C211.3,180.3,212.1,182.7,212.9,185.9z"/>
		<path fill="#0073AB" d="M240,199.3c1.2-1.9,2.5-3.3,3.9-4.4c0.6-0.4,0.9-0.7,1.1-0.8c2.2-1.6,4.6-2.8,7.4-3.5
			c2.3-0.6,4.6-0.7,6.8-0.4c1,0.2,2.1,0.6,3.2,1.2c1.1,0.6,1.9,1.4,2.5,2.2c0.6,0.9,1.1,2.1,1.3,3.6c0.4,2.2,0.3,4.2-0.3,6
			c-0.3,1.1-0.9,2.2-1.6,3.2s-1.5,2-2.4,2.8c-1.3,1.2-2.7,2.3-4.4,3.2c-1.7,0.9-3.5,1.4-5.5,1.5c-2,0.1-4-0.1-5.8-0.7
			c-1.4-0.5-2.8-1.1-3.9-1.8c-1.2-0.8-2.1-1.7-2.7-2.9c-0.6-1.1-1-2.4-1-3.8C238.5,202.8,239,200.9,240,199.3z M247.6,203
			c0,1,0.7,2.1,2.2,3.3c1.4,1.1,2.9,1.4,4.4,0.8c0.9-0.4,1.5-0.9,1.7-1.6c0.2-0.7,0.1-1.4-0.2-2.2c-0.7-1.7-2.2-2.7-4.5-3
			C248.7,199.9,247.6,200.8,247.6,203z"/>
		<path fill="#0073AB" d="M278,179c-0.1,4.4,0.3,9.2,1,14.4c0.8,5.2,2,9.6,3.7,13.4c0.1,0.4,0.3,0.8,0.5,1.2
			c0.2,0.4,0.4,0.9,0.5,1.3c0.1,0.8-0.2,1.4-1,1.9c-0.8,0.5-1.7,0.8-2.7,1c-1.1,0.2-2.1,0.3-3.2,0.2c-1.1,0-1.8-0.2-2.3-0.4
			c-0.8-0.3-1.5-0.9-2-1.7c-0.5-0.8-0.9-1.6-1.1-2.3c-0.6-1.5-1.1-3.4-1.5-5.7c-0.4-2.3-0.8-4.8-1-7.3c-0.2-2.5-0.4-4.9-0.4-7.3
			c0-2.3,0-4.2,0.2-5.7c0.2-1.4,0.4-2.5,0.8-3.2c0.3-0.7,0.7-1.2,1.1-1.5c0.6-0.4,1.2-0.6,2-0.8c0.8-0.2,1.5-0.3,2.1-0.4
			c0.9-0.1,1.7,0.1,2.2,0.4C277.7,176.9,278,177.7,278,179z"/>
		<path fill="#0073AB" d="M285.5,196c0.9-2.3,1.9-4.2,3.1-5.7c0.5-0.6,0.8-1,0.9-1.1c1.9-2.3,4.1-4.1,6.6-5.5c2.2-1.2,4.3-1.9,6.5-2
			c1,0,2.1,0.1,3.3,0.5c1.2,0.4,2.1,1,2.8,1.7c0.8,0.8,1.4,2,1.9,3.5c0.7,2.2,1,4.3,0.8,6.4c-0.1,1.2-0.5,2.5-1,3.8
			c-0.6,1.3-1.2,2.5-1.8,3.6c-1,1.6-2.3,3.1-3.8,4.4c-1.5,1.3-3.2,2.3-5.1,2.9c-2,0.6-3.9,0.8-5.8,0.7c-1.5-0.1-2.9-0.4-4.2-0.9
			c-1.3-0.5-2.3-1.3-3.1-2.3c-0.8-1-1.3-2.2-1.6-3.7C284.6,200.1,284.8,198,285.5,196z M293.6,198c0.2,1.1,1.1,2.1,2.7,2.9
			c1.6,0.8,3.1,0.8,4.4-0.2c0.8-0.6,1.3-1.4,1.3-2.1c0.1-0.8-0.1-1.5-0.5-2.2c-1-1.6-2.6-2.3-4.9-2
			C294.2,194.5,293.2,195.7,293.6,198z"/>
	</g>
</g>
<path fill="none" stroke="#0073AB" stroke-width="7" stroke-miterlimit="10" d="M144,214.4c20.7,10.6,114.8,23,206.5,0.3"/>
<path fill="none" stroke="#0073AB" stroke-width="7" stroke-miterlimit="10" d="M217.3,113c5.3,10.4,44,20,67.6,0"/>
<path fill="#0073AB" d="M251.6,387.1l-23.9-0.9c-9.7,0-20.2-15.3-20.2-7.1c0,8.2,10.5,24.1,20.2,24.1h23.1 M274.5,390.3"/>
<path fill="#0073AB" d="M249.8,403.2h23.1c9.7,0,20.2-15.9,20.2-24.1c0-8.1-10.5,7.1-20.2,7.1l-23.9,0.9"/>
<polyline opacity="0.43" fill="#AF6B34" points="328.3,316.4 328,282.4 287.1,282.3 "/>
<polyline opacity="0.43" fill="#AF6B34" points="213.2,316.4 212.8,282.4 171.9,282.3 "/>
</svg>
